<svg xmlns="http://www.w3.org/2000/svg" viewBox="0 0 1200 700" width="1200" height="700" role="img" aria-label="datatherapy-website architecture">
<title>datatherapy-website architecture</title>
<rect width="1200" height="700" fill="#0f1714"/>
<defs><linearGradient id="ga" x1="0" y1="0" x2="1" y2="1"><stop offset="0%" stop-color="#95d5b2"/><stop offset="100%" stop-color="#b8a1e6"/></linearGradient></defs><rect x="60.00" y="60.00" width="88.00" height="74.00" rx="1.20" fill="#f0f8f4" opacity="0.05"/><rect x="158.00" y="60.00" width="88.00" height="74.00" rx="1.20" fill="#f0f8f4" opacity="0.05"/><rect x="256.00" y="60.00" width="88.00" height="74.00" rx="1.20" fill="#f0f8f4" opacity="0.05"/><rect x="354.00" y="60.00" width="88.00" height="74.00" rx="1.20" fill="#f0f8f4" opacity="0.05"/><rect x="452.00" y="60.00" width="88.00" height="74.00" rx="1.20" fill="#f0f8f4" opacity="0.05"/><rect x="550.00" y="60.00" width="88.00" height="74.00" rx="1.20" fill="#f0f8f4" opacity="0.05"/><rect x="648.00" y="60.00" width="88.00" height="74.00" rx="1.20" fill="#f0f8f4" opacity="0.05"/><rect x="746.00" y="60.00" width="88.00" height="74.00" rx="1.20" fill="#f0f8f4" opacity="0.05"/><rect x="844.00" y="60.00" width="88.00" height="74.00" rx="1.20" fill="#f0f8f4" opacity="0.05"/><rect x="942.00" y="60.00" width="88.00" height="74.00" rx="1.20" fill="#f0f8f4" opacity="0.05"/><rect x="1040.00" y="60.00" width="88.00" height="74.00" rx="1.20" fill="#f0f8f4" opacity="0.05"/><rect x="1138.00" y="60.00" width="88.00" height="74.00" rx="1.20" fill="#f0f8f4" opacity="0.05"/><rect x="60.00" y="144.00" width="88.00" height="74.00" rx="1.20" fill="#f0f8f4" opacity="0.05"/><rect x="158.00" y="144.00" width="88.00" height="74.00" rx="1.20" fill="#f0f8f4" opacity="0.05"/><rect x="256.00" y="144.00" width="88.00" height="74.00" rx="1.20" fill="#f0f8f4" opacity="0.05"/><rect x="354.00" y="144.00" width="88.00" height="74.00" rx="1.20" fill="#f0f8f4" opacity="0.05"/><rect x="452.00" y="144.00" width="88.00" height="74.00" rx="1.20" fill="#f0f8f4" opacity="0.05"/><rect x="550.00" y="144.00" width="88.00" height="74.00" rx="1.20" fill="#f0f8f4" opacity="0.05"/><rect x="648.00" y="144.00" width="88.00" height="74.00" rx="1.20" fill="#f0f8f4" opacity="0.05"/><rect x="746.00" y="144.00" width="88.00" height="74.00" rx="1.20" fill="#f0f8f4" opacity="0.05"/><rect x="844.00" y="144.00" width="88.00" height="74.00" rx="1.20" fill="#f0f8f4" opacity="0.05"/><rect x="942.00" y="144.00" width="88.00" height="74.00" rx="1.20" fill="#f0f8f4" opacity="0.05"/><rect x="1040.00" y="144.00" width="88.00" height="74.00" rx="1.20" fill="#f0f8f4" opacity="0.05"/><rect x="1138.00" y="144.00" width="88.00" height="74.00" rx="1.20" fill="#f0f8f4" opacity="0.05"/><rect x="60.00" y="228.00" width="88.00" height="74.00" rx="1.20" fill="#f0f8f4" opacity="0.05"/><rect x="158.00" y="228.00" width="88.00" height="74.00" rx="1.20" fill="#f0f8f4" opacity="0.05"/><rect x="256.00" y="228.00" width="88.00" height="74.00" rx="1.20" fill="#f0f8f4" opacity="0.05"/><rect x="354.00" y="228.00" width="88.00" height="74.00" rx="1.20" fill="#f0f8f4" opacity="0.05"/><rect x="452.00" y="228.00" width="88.00" height="74.00" rx="1.20" fill="#f0f8f4" opacity="0.05"/><rect x="550.00" y="228.00" width="88.00" height="74.00" rx="1.20" fill="#f0f8f4" opacity="0.05"/><rect x="648.00" y="228.00" width="88.00" height="74.00" rx="1.20" fill="#f0f8f4" opacity="0.05"/><rect x="746.00" y="228.00" width="88.00" height="74.00" rx="1.20" fill="#f0f8f4" opacity="0.05"/><rect x="844.00" y="228.00" width="88.00" height="74.00" rx="1.20" fill="#f0f8f4" opacity="0.05"/><rect x="942.00" y="228.00" width="88.00" height="74.00" rx="1.20" fill="#f0f8f4" opacity="0.05"/><rect x="1040.00" y="228.00" width="88.00" height="74.00" rx="1.20" fill="#f0f8f4" opacity="0.05"/><rect x="1138.00" y="228.00" width="88.00" height="74.00" rx="1.20" fill="#f0f8f4" opacity="0.05"/><rect x="60.00" y="312.00" width="88.00" height="74.00" rx="1.20" fill="#f0f8f4" opacity="0.05"/><rect x="158.00" y="312.00" width="88.00" height="74.00" rx="1.20" fill="#f0f8f4" opacity="0.05"/><rect x="256.00" y="312.00" width="88.00" height="74.00" rx="1.20" fill="#f0f8f4" opacity="0.05"/><rect x="354.00" y="312.00" width="88.00" height="74.00" rx="1.20" fill="#f0f8f4" opacity="0.05"/><rect x="452.00" y="312.00" width="88.00" height="74.00" rx="1.20" fill="#f0f8f4" opacity="0.05"/><rect x="550.00" y="312.00" width="88.00" height="74.00" rx="1.20" fill="#f0f8f4" opacity="0.05"/><rect x="648.00" y="312.00" width="88.00" height="74.00" rx="1.20" fill="#f0f8f4" opacity="0.05"/><rect x="746.00" y="312.00" width="88.00" height="74.00" rx="1.20" fill="#f0f8f4" opacity="0.05"/><rect x="844.00" y="312.00" width="88.00" height="74.00" rx="1.20" fill="#f0f8f4" opacity="0.05"/><rect x="942.00" y="312.00" width="88.00" height="74.00" rx="1.20" fill="#f0f8f4" opacity="0.05"/><rect x="1040.00" y="312.00" width="88.00" height="74.00" rx="1.20" fill="#f0f8f4" opacity="0.05"/><rect x="1138.00" y="312.00" width="88.00" height="74.00" rx="1.20" fill="#f0f8f4" opacity="0.05"/><rect x="60.00" y="396.00" width="88.00" height="74.00" rx="1.20" fill="#f0f8f4" opacity="0.05"/><rect x="158.00" y="396.00" width="88.00" height="74.00" rx="1.20" fill="#f0f8f4" opacity="0.05"/><rect x="256.00" y="396.00" width="88.00" height="74.00" rx="1.20" fill="#f0f8f4" opacity="0.05"/><rect x="354.00" y="396.00" width="88.00" height="74.00" rx="1.20" fill="#f0f8f4" opacity="0.05"/><rect x="452.00" y="396.00" width="88.00" height="74.00" rx="1.20" fill="#f0f8f4" opacity="0.05"/><rect x="550.00" y="396.00" width="88.00" height="74.00" rx="1.20" fill="#f0f8f4" opacity="0.05"/><rect x="648.00" y="396.00" width="88.00" height="74.00" rx="1.20" fill="#f0f8f4" opacity="0.05"/><rect x="746.00" y="396.00" width="88.00" height="74.00" rx="1.20" fill="#f0f8f4" opacity="0.05"/><rect x="844.00" y="396.00" width="88.00" height="74.00" rx="1.20" fill="#f0f8f4" opacity="0.05"/><rect x="942.00" y="396.00" width="88.00" height="74.00" rx="1.20" fill="#f0f8f4" opacity="0.05"/><rect x="1040.00" y="396.00" width="88.00" height="74.00" rx="1.20" fill="#f0f8f4" opacity="0.05"/><rect x="1138.00" y="396.00" width="88.00" height="74.00" rx="1.20" fill="#f0f8f4" opacity="0.05"/><rect x="60.00" y="480.00" width="88.00" height="74.00" rx="1.20" fill="#f0f8f4" opacity="0.05"/><rect x="158.00" y="480.00" width="88.00" height="74.00" rx="1.20" fill="#f0f8f4" opacity="0.05"/><rect x="256.00" y="480.00" width="88.00" height="74.00" rx="1.20" fill="#f0f8f4" opacity="0.05"/><rect x="354.00" y="480.00" width="88.00" height="74.00" rx="1.20" fill="#f0f8f4" opacity="0.05"/><rect x="452.00" y="480.00" width="88.00" height="74.00" rx="1.20" fill="#f0f8f4" opacity="0.05"/><rect x="550.00" y="480.00" width="88.00" height="74.00" rx="1.20" fill="#f0f8f4" opacity="0.05"/><rect x="648.00" y="480.00" width="88.00" height="74.00" rx="1.20" fill="#f0f8f4" opacity="0.05"/><rect x="746.00" y="480.00" width="88.00" height="74.00" rx="1.20" fill="#f0f8f4" opacity="0.05"/><rect x="844.00" y="480.00" width="88.00" height="74.00" rx="1.20" fill="#f0f8f4" opacity="0.05"/><rect x="942.00" y="480.00" width="88.00" height="74.00" rx="1.20" fill="#f0f8f4" opacity="0.05"/><rect x="1040.00" y="480.00" width="88.00" height="74.00" rx="1.20" fill="#f0f8f4" opacity="0.05"/><rect x="1138.00" y="480.00" width="88.00" height="74.00" rx="1.20" fill="#f0f8f4" opacity="0.05"/><rect x="60.00" y="564.00" width="88.00" height="74.00" rx="1.20" fill="#f0f8f4" opacity="0.05"/><rect x="158.00" y="564.00" width="88.00" height="74.00" rx="1.20" fill="#f0f8f4" opacity="0.05"/><rect x="256.00" y="564.00" width="88.00" height="74.00" rx="1.20" fill="#f0f8f4" opacity="0.05"/><rect x="354.00" y="564.00" width="88.00" height="74.00" rx="1.20" fill="#f0f8f4" opacity="0.05"/><rect x="452.00" y="564.00" width="88.00" height="74.00" rx="1.20" fill="#f0f8f4" opacity="0.05"/><rect x="550.00" y="564.00" width="88.00" height="74.00" rx="1.20" fill="#f0f8f4" opacity="0.05"/><rect x="648.00" y="564.00" width="88.00" height="74.00" rx="1.20" fill="#f0f8f4" opacity="0.05"/><rect x="746.00" y="564.00" width="88.00" height="74.00" rx="1.20" fill="#f0f8f4" opacity="0.05"/><rect x="844.00" y="564.00" width="88.00" height="74.00" rx="1.20" fill="#f0f8f4" opacity="0.05"/><rect x="942.00" y="564.00" width="88.00" height="74.00" rx="1.20" fill="#f0f8f4" opacity="0.05"/><rect x="1040.00" y="564.00" width="88.00" height="74.00" rx="1.20" fill="#f0f8f4" opacity="0.05"/><rect x="1138.00" y="564.00" width="88.00" height="74.00" rx="1.20" fill="#f0f8f4" opacity="0.05"/><path d="M292.00,138.00 H408.00 L424.00,154.00 V218.00 L408.00,234.00 H292.00 L276.00,218.00 V154.00 Z" fill="none" stroke="rgba(149,213,178,0.550)" stroke-width="1.80" opacity="0.90"/><polygon points="116.05,229.00 152.42,250.00 152.42,208.00 116.05,187.00" fill="#947c60" opacity="0.95"/><polygon points="79.67,250.00 116.05,271.00 116.05,229.00 79.67,208.00" fill="#907eb3" opacity="0.95"/><polygon points="116.05,187.00 152.42,208.00 116.05,229.00 79.67,208.00" fill="#95d5b2" opacity="0.95"/><text x="350" y="212" font-family="ui-monospace,Menlo,monospace" font-size="17" fill="rgba(240,248,244,0.900)" text-anchor="middle">index.html</text><path d="M792.00,138.00 H908.00 L924.00,154.00 V218.00 L908.00,234.00 H792.00 L776.00,218.00 V154.00 Z" fill="none" stroke="rgba(184,161,230,0.550)" stroke-width="1.80" opacity="0.90"/><polygon points="549.06,479.00 585.43,500.00 585.43,458.00 549.06,437.00" fill="#947c60" opacity="0.95"/><polygon points="512.69,500.00 549.06,521.00 549.06,479.00 512.69,458.00" fill="#907eb3" opacity="0.95"/><polygon points="549.06,437.00 585.43,458.00 549.06,479.00 512.69,458.00" fill="#b8a1e6" opacity="0.95"/><text x="850" y="212" font-family="ui-monospace,Menlo,monospace" font-size="17" fill="rgba(240,248,244,0.900)" text-anchor="middle">public/index.htm</text><text x="100" y="112" font-family="ui-monospace,Menlo,monospace" font-size="15" fill="rgba(240,248,244,0.500)">single-package repository</text>
</svg>